Coordinates
version=1
nRows=8
nColumns=40
inDegrees=yes

Units are S.I. units (second, meters, Newtons, ...)
Angles are in degrees.

endheader
time	pelvis_tilt	pelvis_list	pelvis_rotation	pelvis_tx	pelvis_ty	pelvis_tz	hip_flexion_r	hip_adduction_r	hip_rotation_r	knee_angle_r	knee_angle_r_beta	ankle_angle_r	subtalar_angle_r	mtp_angle_r	hip_flexion_l	hip_adduction_l	hip_rotation_l	knee_angle_l	knee_angle_l_beta	ankle_angle_l	subtalar_angle_l	mtp_angle_l	lumbar_extension	lumbar_bending	lumbar_rotation	arm_flex_r	arm_add_r	arm_rot_r	elbow_flex_r	pro_sup_r	wrist_flex_r	wrist_dev_r	arm_flex_l	arm_add_l	arm_rot_l	elbow_flex_l	pro_sup_l	wrist_flex_l	wrist_dev_l
     32.08000000	     -3.75634392	     -4.49332898	      0.20888471	      0.93856088	      0.93154407	      0.50990067	     12.50473963	      3.64130016	    -16.88395573	     16.41536991	     16.41536991	      9.40524297	     -0.74983665	     -4.48887646	     27.41364966	    -12.43957843	     -0.82458095	     54.51097544	     54.51097544	     14.49213850	    -19.05064657	     17.32071413	     -9.51828361	      7.35374688	      3.12323041	     17.50660734	    -16.05429470	     -0.16607837	     39.01497173	     45.78737728	      0.00000000	      0.00000000	      4.25299814	     -9.54106703	     -8.20129087	     70.13573631	     46.39035725	      0.00000000	      0.00000000
     32.09321429	     -3.97923535	     -4.28001501	      0.49227783	      0.93695610	      0.93187661	      0.50991959	     12.10465954	      3.49419701	    -16.88205093	     15.90391588	     15.90391588	      9.47301546	     -0.81809219	     -4.44244519	     28.38646909	    -12.02712302	     -0.69213234	     51.79824921	     51.79824921	     14.69192585	    -18.99565766	     17.29323806	     -9.47386906	      7.15826459	      2.94083535	     19.56053657	    -16.14522198	     -0.29538358	     40.16737911	     45.76305262	      0.00000000	      0.00000000	      3.11369061	     -9.14932017	     -7.88556221	     68.72145021	     46.34649049	      0.00000000	      0.00000000
     32.10642857	     -4.10649789	     -4.23248144	      0.81807327	      0.93544729	      0.93225813	      0.51001398	     11.46617266	      3.56470243	    -17.07947546	     15.13033447	     15.13033447	      9.35359376	     -0.83964035	     -5.06810510	     29.02352312	    -11.78948120	     -0.55859349	     48.61803864	     48.61803864	     13.93008809	    -18.90635270	     15.20560942	     -9.46188321	      7.15743028	      3.05321805	     20.93576554	    -16.46332684	     -0.23863306	     42.73039249	     45.66533051	      0.00000000	      0.00000000	      3.37533917	     -8.63387507	     -7.59164069	     63.97340798	     46.37107678	      0.00000000	      0.00000000
     32.11964286	     -4.24599477	     -4.05183581	      1.13669322	      0.93394600	      0.93256274	      0.50994751	     10.95632866	      3.44453510	    -17.22453830	     14.60013138	     14.60013138	      9.49874964	     -0.78998172	     -5.09221320	     29.51831329	    -11.27649964	     -0.32623044	     45.29320459	     45.29320459	     13.84041510	    -18.74452785	     15.29592052	     -9.48390144	      6.97656548	      2.68331951	     23.05954031	    -16.31989456	     -0.32897477	     44.01417331	     45.63423876	      0.00000000	      0.00000000	      2.43980863	     -8.46552792	     -7.29018859	     62.00321754	     46.32383063	      0.00000000	      0.00000000
     32.13285714	     -4.42211336	     -4.00345687	      1.40558651	      0.93246007	      0.93263004	      0.50976955	     10.48693732	      3.43503217	    -17.52362296	     14.05596964	     14.05596964	      9.49827979	     -0.47568315	     -5.51708010	     29.91538954	    -10.89692508	     -0.10815137	     41.79248713	     41.79248713	     13.15091690	    -18.51268199	     13.74436649	     -9.39951875	      7.02616348	      2.96177704	     24.67594192	    -16.76852116	     -0.24177898	     45.64136893	     45.57871507	      0.00000000	      0.00000000	      2.96415880	     -7.74262305	     -7.09909933	     56.81124643	     46.28572732	      0.00000000	      0.00000000
     32.14607143	     -4.58997977	     -3.80971021	      1.67804439	      0.93095276	      0.93270442	      0.50949727	     10.08084028	      3.28236739	    -17.58331688	     13.63936097	     13.63936097	      9.64133943	     -0.52701524	     -5.54582093	     30.19086952	    -10.28665361	      0.18265322	     38.24382487	     38.24382487	     12.93966339	    -17.97545243	     13.83208717	     -9.42485054	      6.80085319	      2.65038237	     26.59894673	    -16.63991889	     -0.35675359	     47.00135188	     45.54505868	      0.00000000	      0.00000000	      2.04328244	     -7.55788703	     -6.81227153	     55.17201767	     46.23971816	      0.00000000	      0.00000000
     32.15928571	     -4.74968093	     -3.80106272	      1.97310633	      0.92950986	      0.93254195	      0.50909028	      9.65966803	      3.29109559	    -17.92548083	     13.20725566	     13.20725566	      9.69619333	     -0.25698280	     -5.95504168	     30.38578490	     -9.86752226	      0.50307011	     34.60914841	     34.60914841	     11.83427475	    -17.36561484	     11.52440183	     -9.36111190	      6.89064650	      2.87159897	     27.93933026	    -17.07315691	     -0.26873246	     49.22911576	     45.46903668	      0.00000000	      0.00000000	      2.77781214	     -6.97827252	     -6.50364555	     49.60454396	     46.18528113	      0.00000000	      0.00000000
     32.17250000	     -4.87911137	     -3.74652752	      2.23421808	      0.92805773	      0.93231994	      0.50862547	      9.28987356	      3.25825718	    -18.01403621	     12.93665941	     12.93665941	      9.88903378	     -0.31287744	     -6.04516464	     30.57742116	     -9.41861399	      0.77957631	     31.25444511	     31.25444511	     11.50184566	    -16.09865782	     11.07979740	     -9.41030469	      6.85913980	      2.49479649	     29.77019394	    -16.88593952	     -0.37250632	     50.99725675	     45.42100189	      0.00000000	      0.00000000	      2.04439057	     -6.81655542	     -6.22450141	     47.40221121	     46.13809764	      0.00000000	      0.00000000
